<svg width="164" height="100" viewBox="0 0 164 100" fill="none" xmlns="http://www.w3.org/2000/svg">
<g clip-path="url(#clip0)">
<path d="M80.6096 99.7114C80.0577 99.7114 79.5424 99.5643 79.0638 99.3066L74.1685 96.399C73.4322 95.9939 73.8004 95.8468 74.0214 95.7732C75.015 95.442 75.1991 95.3681 76.2297 94.7796C76.3402 94.7057 76.4876 94.7426 76.5978 94.8162L80.3523 97.0614C80.4994 97.135 80.6835 97.135 80.7937 97.0614L95.48 88.5589C95.6271 88.4853 95.701 88.3378 95.701 88.1541V71.1859C95.701 71.0015 95.6271 70.8547 95.48 70.7808L80.7937 62.3152C80.6466 62.2414 80.4625 62.2414 80.3523 62.3152L65.666 70.7808C65.5189 70.8544 65.445 71.0385 65.445 71.1856V88.1538C65.445 88.3012 65.5189 88.485 65.666 88.5589L69.6781 90.8777C71.8497 91.9818 73.2115 90.6936 73.2115 89.4054V72.6579C73.2115 72.4372 73.3956 72.2162 73.6532 72.2162H75.5303C75.7513 72.2162 75.972 72.4003 75.972 72.6579V89.4054C75.972 92.313 74.3892 94.0063 71.6287 94.0063C70.7822 94.0063 70.1198 94.0063 68.2424 93.0859L64.3778 90.8777C63.4208 90.3257 62.8319 89.2949 62.8319 88.1907V71.2226C62.8319 70.1184 63.4208 69.0875 64.3778 68.5356L79.0638 60.0331C79.9841 59.5178 81.2357 59.5178 82.1558 60.0331L96.8418 68.5356C97.7988 69.0875 98.388 70.1184 98.388 71.2226V88.1907C98.388 89.2949 97.7988 90.3257 96.8418 90.8777L82.1558 99.3802C81.6771 99.6012 81.1252 99.7114 80.6099 99.7114H80.6096ZM85.137 88.0436C78.6959 88.0436 77.3708 85.099 77.3708 82.5961C77.3708 82.3751 77.5548 82.1544 77.8125 82.1544H79.7265C79.9472 82.1544 80.1313 82.3015 80.1313 82.5226C80.4259 84.4732 81.2724 85.4302 85.1739 85.4302C88.2657 85.4302 89.5912 84.7308 89.5912 83.0745C89.5912 82.1175 89.2227 81.4184 84.401 80.9398C80.3889 80.5347 77.8861 79.6515 77.8861 76.4493C77.8861 73.4678 80.3892 71.7009 84.5851 71.7009C89.2962 71.7009 91.6153 73.3207 91.9099 76.8538C91.9099 76.9646 91.873 77.0748 91.7994 77.1853C91.7255 77.2589 91.6154 77.3324 91.5048 77.3324H89.5908C89.4068 77.3324 89.2227 77.1853 89.1861 77.0012C88.7443 74.977 87.6032 74.3143 84.5851 74.3143C81.1988 74.3143 80.7937 75.4923 80.7937 76.3754C80.7937 77.4429 81.2724 77.7742 85.8364 78.363C90.3638 78.9522 92.4988 79.7987 92.4988 82.964C92.4618 86.2031 89.8118 88.0436 85.137 88.0436Z" fill="#539E43"/>
<path d="M35.0421 33.3477C35.0421 32.6853 34.674 32.0592 34.0851 31.728L18.4788 22.7471C18.2208 22.5996 17.9265 22.5261 17.6323 22.4891H17.4848C17.1906 22.4891 16.896 22.5996 16.6383 22.7471L1.03196 31.728C0.442786 32.0592 0.0749512 32.685 0.0749512 33.3477L0.111894 57.4933C0.111894 57.8245 0.29597 58.1557 0.590238 58.3032C0.884824 58.4872 1.25266 58.4872 1.51062 58.3032L10.7861 53.0028C11.375 52.6716 11.7431 52.0458 11.7431 51.3834V40.0834C11.7431 39.421 12.1109 38.7952 12.7001 38.464L16.6383 36.1818C16.9329 35.9977 17.2641 35.9239 17.5953 35.9239C17.9265 35.9239 18.2578 35.9977 18.5157 36.1818L22.4539 38.464C23.0431 38.7952 23.4109 39.4207 23.4109 40.0834V51.3834C23.4109 52.0458 23.7791 52.6716 24.3679 53.0028L33.6434 58.3032C33.938 58.4872 34.3058 58.4872 34.6004 58.3032C34.895 58.1557 35.0791 57.8245 35.0791 57.4933L35.0421 33.3477Z" fill="#333333"/>
<path d="M110.056 0.110467C109.762 -0.0369851 109.393 -0.0369851 109.136 0.110467C108.841 0.294544 108.657 0.588811 108.657 0.920021V24.8452C108.657 25.0659 108.547 25.2866 108.326 25.434C108.105 25.5442 107.884 25.5442 107.664 25.434L103.762 23.1888C103.476 23.0259 103.152 22.9403 102.823 22.9403C102.494 22.9403 102.171 23.0259 101.885 23.1888L86.2782 32.2066C85.6893 32.5379 85.3212 33.1637 85.3212 33.8261V51.8248C85.3212 52.4872 85.6893 53.1133 86.2782 53.4445L101.885 62.4624C102.171 62.6252 102.494 62.7109 102.823 62.7109C103.152 62.7109 103.476 62.6252 103.762 62.4624L119.368 53.4445C119.957 53.1133 120.325 52.4875 120.325 51.8248V6.95665C120.325 6.25728 119.957 5.6318 119.368 5.30028L110.056 0.110467H110.056ZM108.621 45.899C108.621 46.0831 108.547 46.2302 108.4 46.3038L103.063 49.3955C102.988 49.4319 102.906 49.4508 102.823 49.4508C102.74 49.4508 102.658 49.4319 102.584 49.3955L97.247 46.3038C97.0995 46.2302 97.026 46.0461 97.026 45.899V39.7152C97.026 39.5312 97.0995 39.384 97.247 39.3105L102.584 36.2184C102.658 36.1821 102.74 36.1632 102.823 36.1632C102.906 36.1632 102.988 36.1821 103.063 36.2184L108.4 39.3105C108.547 39.3837 108.621 39.5681 108.621 39.7152V45.899Z" fill="#333333"/>
<path d="M161.991 39.5681C162.58 39.2369 162.912 38.6111 162.912 37.9484V33.5685C162.912 32.906 162.543 32.2802 161.991 31.949L146.495 22.9681C146.209 22.8053 145.886 22.7197 145.557 22.7197C145.228 22.7197 144.904 22.8053 144.618 22.9681L129.012 31.9857C128.423 32.3169 128.055 32.9427 128.055 33.6054V51.6041C128.055 52.2666 128.423 52.8923 129.012 53.2236L144.508 62.0573C145.097 62.3885 145.796 62.3885 146.348 62.0573L155.734 56.8312C156.028 56.6837 156.213 56.3525 156.213 56.0213C156.213 55.6901 156.028 55.3589 155.734 55.2115L140.054 46.1936C139.76 46.0099 139.576 45.7153 139.576 45.3841V39.7525C139.576 39.4213 139.76 39.0901 140.054 38.9427L144.95 36.1452C145.093 36.055 145.259 36.0072 145.428 36.0072C145.597 36.0072 145.763 36.055 145.907 36.1452L150.802 38.9427C151.096 39.1267 151.28 39.421 151.28 39.7525V44.1694C151.28 44.5006 151.464 44.8318 151.759 44.979C152.053 45.163 152.421 45.163 152.716 44.979L161.991 39.5681Z" fill="#333333"/>
<path d="M145.318 38.7216C145.372 38.6857 145.436 38.6665 145.502 38.6665C145.567 38.6665 145.631 38.6857 145.685 38.7216L148.667 40.4516C148.778 40.5248 148.851 40.6353 148.851 40.7828V44.2426C148.851 44.3898 148.778 44.5003 148.667 44.5739L145.685 46.3038C145.631 46.3397 145.567 46.3589 145.502 46.3589C145.436 46.3589 145.372 46.3397 145.318 46.3038L142.336 44.5739C142.226 44.5003 142.152 44.3898 142.152 44.2426V40.7828C142.152 40.6353 142.226 40.5248 142.336 40.4516L145.318 38.7216Z" fill="#539E43"/>
<mask id="mask0" style="mask-type:alpha" maskUnits="userSpaceOnUse" x="42" y="22" width="36" height="41">
<path d="M61.1386 23.0416C60.8526 22.8788 60.5292 22.7932 60.2001 22.7932C59.871 22.7932 59.5476 22.8788 59.2616 23.0416L43.7657 31.9853C43.1765 32.3165 42.8453 32.9423 42.8453 33.6047V51.5302C42.8453 52.1926 43.2135 52.8184 43.7657 53.1496L59.2616 62.0939C59.5476 62.2567 59.871 62.3423 60.2001 62.3423C60.5292 62.3423 60.8526 62.2567 61.1386 62.0939L76.6348 53.1496C77.2237 52.8184 77.5552 52.1926 77.5552 51.5302V33.605C77.5552 32.9426 77.1867 32.3168 76.6348 31.9856L61.1386 23.0416Z" fill="white"/>
</mask>
<g mask="url(#mask0)">
<path d="M61.1386 23.0416C60.8526 22.8788 60.5292 22.7932 60.2001 22.7932C59.871 22.7932 59.5476 22.8788 59.2616 23.0416L43.7657 31.9853C43.1765 32.3165 42.8453 32.9423 42.8453 33.6047V51.5302C42.8453 52.1926 43.2135 52.8184 43.7657 53.1496L59.2616 62.0939C59.5476 62.2567 59.871 62.3423 60.2001 62.3423C60.5292 62.3423 60.8526 62.2567 61.1386 62.0939L76.6348 53.1496C77.2237 52.8184 77.5552 52.1926 77.5552 51.5302V33.605C77.5552 32.9426 77.1867 32.3168 76.6348 31.9856L61.1386 23.0416Z" fill="url(#paint0_linear)"/>
<path d="M76.6715 31.9856L61.1021 23.0416C60.9491 22.9644 60.7888 22.9027 60.6235 22.8575L43.1766 52.7454C43.3212 52.9219 43.4957 53.0714 43.6922 53.1872L59.2617 62.1314C59.7034 62.3891 60.2187 62.4626 60.697 62.3152L77.0766 32.354C76.9661 32.2069 76.8187 32.0961 76.6715 31.9859V31.9856Z" fill="url(#paint1_linear)"/>
<path fill-rule="evenodd" clip-rule="evenodd" d="M76.7084 53.1499C77.1501 52.8923 77.4813 52.4505 77.6288 51.9722L60.5495 22.8206C60.1077 22.747 59.6291 22.7837 59.2246 23.0413L43.7654 31.949L60.4389 62.3518C60.6814 62.3121 60.917 62.2378 61.1383 62.1311L76.7081 53.1502L76.7084 53.1499Z" fill="url(#paint2_linear)"/>
<path fill-rule="evenodd" clip-rule="evenodd" d="M76.7085 53.15L61.1757 62.0942C60.9564 62.206 60.7201 62.2806 60.4763 62.3149L60.7709 62.8671L77.9967 52.8926V52.6716L77.555 51.9353C77.4814 52.4506 77.1502 52.8923 76.7085 53.15Z" fill="url(#paint3_linear)"/>
<path fill-rule="evenodd" clip-rule="evenodd" d="M76.7085 53.15L61.1757 62.0942C60.9564 62.206 60.7201 62.2806 60.4763 62.3149L60.7709 62.8671L77.9967 52.8926V52.6716L77.555 51.9353C77.4814 52.4506 77.1502 52.8923 76.7085 53.15Z" fill="url(#paint4_linear)"/>
</g>
</g>
<defs>
<linearGradient id="paint0_linear" x1="66.5133" y1="29.7092" x2="49.5283" y2="56.3976" gradientUnits="userSpaceOnUse">
<stop stop-color="#41873F"/>
<stop offset="0.3288" stop-color="#418B3D"/>
<stop offset="0.6352" stop-color="#419637"/>
<stop offset="0.9319" stop-color="#3FA92D"/>
<stop offset="1" stop-color="#3FAE2A"/>
</linearGradient>
<linearGradient id="paint1_linear" x1="57.8475" y1="44.6674" x2="100.386" y2="21.5563" gradientUnits="userSpaceOnUse">
<stop offset="0.1376" stop-color="#41873F"/>
<stop offset="0.4032" stop-color="#54A044"/>
<stop offset="0.7136" stop-color="#66B848"/>
<stop offset="0.9081" stop-color="#6CC04A"/>
</linearGradient>
<linearGradient id="paint2_linear" x1="42.2791" y1="42.5683" x2="78.1364" y2="42.5683" gradientUnits="userSpaceOnUse">
<stop offset="0.09192" stop-color="#6CC04A"/>
<stop offset="0.2864" stop-color="#66B848"/>
<stop offset="0.5968" stop-color="#54A044"/>
<stop offset="0.8624" stop-color="#41873F"/>
</linearGradient>
<linearGradient id="paint3_linear" x1="42.2795" y1="57.4313" x2="78.1363" y2="57.4313" gradientUnits="userSpaceOnUse">
<stop offset="0.09192" stop-color="#6CC04A"/>
<stop offset="0.2864" stop-color="#66B848"/>
<stop offset="0.5968" stop-color="#54A044"/>
<stop offset="0.8624" stop-color="#41873F"/>
</linearGradient>
<linearGradient id="paint4_linear" x1="83.3602" y1="28.8616" x2="74.2763" y2="76.4612" gradientUnits="userSpaceOnUse">
<stop stop-color="#41873F"/>
<stop offset="0.3288" stop-color="#418B3D"/>
<stop offset="0.6352" stop-color="#419637"/>
<stop offset="0.9319" stop-color="#3FA92D"/>
<stop offset="1" stop-color="#3FAE2A"/>
</linearGradient>
<clipPath id="clip0">
<rect width="163.06" height="100" fill="white"/>
</clipPath>
</defs>
</svg>
