<svg width="100" height="100" viewBox="0 0 100 100" fill="none" xmlns="http://www.w3.org/2000/svg">
<path d="M56.8468 40.8469H64.6874V48.8657H68.6562C70.5102 48.8574 72.3506 48.5493 74.1062 47.9532C75.0288 47.6477 75.917 47.2465 76.7562 46.7563C75.6821 45.2702 75.0446 43.5135 74.9156 41.6844C74.5865 39.0153 75.2737 36.3201 76.8406 34.1344L77.6656 33.1813L78.6468 33.9719C81.25 35.8809 83.0138 38.7231 83.5687 41.9032C86.5958 40.9722 89.8684 41.2766 92.6718 42.7501L93.7499 43.375L93.1843 44.4813C92.0374 46.4159 90.3412 47.9658 88.3114 48.934C86.2815 49.9022 84.0095 50.245 81.7843 49.9188C74.9937 66.8344 60.2218 74.8438 42.2781 74.8438C37.8096 75.1097 33.3521 74.1645 29.3761 72.108C25.4 70.0515 22.0527 66.9599 19.6874 63.1594L19.6093 63.025L18.9031 61.5907C17.3057 57.9669 16.6821 53.9888 17.0937 50.0501L17.2031 48.8625H23.8999V40.8469H31.7437V33.0032H47.4312V25.1594H56.8437V40.8469H56.8468Z" fill="#3A4E55"/>
<path d="M82.2625 43.8156C82.3163 42.0934 81.9391 40.3851 81.1653 38.8456C80.3915 37.3061 79.2454 35.9843 77.8312 35C76.6064 36.7981 76.0288 38.959 76.1928 41.1284C76.3569 43.2978 77.253 45.3472 78.7343 46.9406C75.8222 49.0987 72.2804 50.2375 68.6562 50.1813H18.3843C17.9528 54.193 18.6759 58.2446 20.4687 61.8594L21.0406 62.9062C21.4024 63.5203 21.7978 64.1139 22.225 64.6844C24.2916 64.8177 26.1968 64.8646 27.9406 64.825C30.7662 64.8424 33.5781 64.4326 36.2812 63.6094C36.4325 63.5572 36.5983 63.5672 36.7421 63.6372C36.886 63.7072 36.9962 63.8316 37.0484 63.9828C37.1006 64.1341 37.0906 64.2999 37.0206 64.4438C36.9505 64.5876 36.8262 64.6978 36.675 64.75C36.3937 64.8469 36.1 64.9406 35.7968 65.025C33.9158 65.551 31.982 65.8655 30.0312 65.9625C30.1687 65.9625 29.8875 65.9844 29.8875 65.9844L29.6312 66.0063C27.5404 66.0979 25.4464 66.0917 23.3562 65.9875L23.325 66.0094C25.7624 68.5446 28.7144 70.5284 31.9826 71.8275C35.2507 73.1265 38.7591 73.7107 42.2718 73.5406C59.6468 73.5406 74.3843 65.8375 80.9125 48.5406C85.5437 49.0156 89.9937 47.8344 92.0156 43.8844C90.5056 43.1186 88.8385 42.7138 87.1456 42.7019C85.4526 42.69 83.7799 43.0712 82.2593 43.8156" fill="#00AADA"/>
<path d="M82.2626 43.8156C82.3164 42.0934 81.9392 40.3851 81.1654 38.8456C80.3916 37.3061 79.2455 35.9843 77.8313 35C76.6065 36.7981 76.0288 38.959 76.1929 41.1284C76.357 43.2978 77.2531 45.3472 78.7344 46.9406C75.8223 49.0987 72.2805 50.2375 68.6563 50.1813H21.3626C21.1047 52.9823 21.5751 55.8025 22.7282 58.3682C23.8813 60.934 25.6779 63.1581 27.9438 64.825C30.7694 64.8424 33.5814 64.4326 36.2844 63.6094C36.3593 63.5835 36.4386 63.5727 36.5177 63.5774C36.5967 63.5822 36.6741 63.6025 36.7454 63.6372C36.8166 63.6719 36.8803 63.7203 36.9329 63.7796C36.9854 63.8389 37.0258 63.9079 37.0516 63.9828C37.0775 64.0577 37.0883 64.137 37.0835 64.216C37.0788 64.2951 37.0585 64.3725 37.0238 64.4438C36.9891 64.515 36.9407 64.5787 36.8814 64.6312C36.8221 64.6838 36.7531 64.7241 36.6782 64.75C36.3969 64.8469 36.1032 64.9406 35.8001 65.025C33.8687 65.5662 31.884 65.8953 29.8813 66.0063L29.8219 65.9375C35.7344 68.9719 44.3094 68.9594 54.1407 65.1844C65.3584 60.6522 75.1718 53.2231 82.5782 43.6563L82.2657 43.8062" fill="#27B9EC"/>
<path d="M18.4781 55.4126C18.7743 57.6562 19.4473 59.8337 20.4688 61.8532L21.0406 62.9001C21.4024 63.5141 21.7978 64.1077 22.225 64.6782C24.2917 64.8115 26.1969 64.8584 27.9406 64.8188C30.7662 64.8362 33.5782 64.4264 36.2813 63.6032C36.3562 63.5773 36.4354 63.5665 36.5145 63.5712C36.5936 63.576 36.671 63.5963 36.7422 63.631C36.8134 63.6657 36.8772 63.714 36.9297 63.7733C36.9823 63.8326 37.0226 63.9017 37.0485 63.9766C37.0743 64.0515 37.0852 64.1308 37.0804 64.2098C37.0756 64.2889 37.0553 64.3663 37.0206 64.4375C36.986 64.5088 36.9376 64.5725 36.8783 64.625C36.819 64.6776 36.7499 64.7179 36.675 64.7438C36.3938 64.8407 36.1 64.9344 35.7969 65.0188C33.8678 65.5521 31.8863 65.8737 29.8875 65.9782H29.575C28.6656 66.0282 27.7 66.0594 26.6938 66.0594C25.5969 66.0594 24.4781 66.0376 23.2563 65.9782C25.7013 68.5153 28.6602 70.5006 31.9349 71.801C35.2096 73.1015 38.7243 73.6872 42.2438 73.5188C57.1188 73.5188 70.0563 67.8719 77.5563 55.3938L18.4781 55.4126Z" fill="#088CB9"/>
<path d="M21.8125 55.4125C22.5704 59.219 24.765 62.5875 27.9406 64.8188C30.7662 64.8362 33.5782 64.4264 36.2812 63.6032C36.4325 63.551 36.5983 63.561 36.7422 63.631C36.8861 63.701 36.9962 63.8254 37.0484 63.9766C37.1007 64.1279 37.0906 64.2937 37.0206 64.4375C36.9506 64.5814 36.8263 64.6916 36.675 64.7438C36.3938 64.8407 36.1 64.9344 35.7969 65.0188C33.8579 65.5509 31.8673 65.8725 29.8594 65.9782C35.7719 69.0125 44.3219 68.9688 54.15 65.1907C60.2151 62.8022 65.8811 59.5039 70.9531 55.4094L21.8125 55.4125Z" fill="#039CC7"/>
<path d="M30.9031 42.7219H31.4406V48.3875H30.9031V42.7219ZM29.8719 42.7219H30.4313V48.3875H29.8719V42.7219ZM28.8406 42.7219H29.4V48.3875H28.8438V42.7219H28.8406ZM27.8094 42.7219H28.3688V48.3875H27.8125V42.7219H27.8094ZM26.7781 42.7219H27.3375V48.3875H26.7813V42.7219H26.7781ZM25.7688 42.7219H26.3063V48.3875H25.775V42.7219H25.7688ZM25.2031 42.1562H32V48.9563H25.2063V42.1562H25.2031Z" fill="#00ACD3"/>
<path d="M38.75 34.8781H39.2875V40.5437H38.75V34.8781ZM37.7188 34.8781H38.2782V40.5437H37.7188V34.8781ZM36.6875 34.8781H37.2469V40.5437H36.6875V34.8781ZM35.6563 34.8781H36.2157V40.5437H35.6563V34.8781ZM34.625 34.8781H35.1813V40.5437H34.625V34.8781ZM33.6157 34.8781H34.1532V40.5437H33.6157V34.8781ZM33.05 34.3124H39.85V41.1125H33.0532V34.3093L33.05 34.3124Z" fill="#00ACD3"/>
<path d="M38.75 42.7219H39.2875V48.3875H38.75V42.7219ZM37.7188 42.7219H38.2782V48.3875H37.7188V42.7219ZM36.6875 42.7219H37.2469V48.3875H36.6875V42.7219ZM35.6563 42.7219H36.2157V48.3875H35.6563V42.7219ZM34.625 42.7219H35.1813V48.3875H34.625V42.7219ZM33.6157 42.7219H34.1532V48.3875H33.6157V42.7219ZM33.05 42.1562H39.85V48.9563H33.0532V42.1562H33.05Z" fill="#26C2EE"/>
<path d="M46.5906 42.7219H47.1281V48.3875H46.5906V42.7219ZM45.5594 42.7219H46.1188V48.3875H45.5625V42.7219H45.5594ZM44.5281 42.7219H45.0875V48.3875H44.5312V42.7219H44.5281ZM43.4969 42.7219H44.0625V48.3875H43.5031V42.7219H43.4969ZM42.4656 42.7219H43.025V48.3875H42.4656V42.7219ZM41.4562 42.7219H41.9937V48.3875H41.4562V42.7219ZM40.8906 42.1562H47.6906V48.9563H40.8969V42.1562H40.8906Z" fill="#00ACD3"/>
<path d="M46.5906 34.8781H47.1281V40.5437H46.5906V34.8781ZM45.5594 34.8781H46.1188V40.5437H45.5625V34.8781H45.5594ZM44.5281 34.8781H45.0875V40.5437H44.5312V34.8781H44.5281ZM43.4969 34.8781H44.0625V40.5437H43.5031V34.8781H43.4969ZM42.4656 34.8781H43.025V40.5437H42.4656V34.8781ZM41.4562 34.8781H41.9937V40.5437H41.4562V34.8781ZM40.8906 34.3124H47.6906V41.1125H40.8969V34.3093L40.8906 34.3124Z" fill="#26C2EE"/>
<path d="M54.4375 42.7219H54.975V48.3875H54.4375V42.7219ZM53.4062 42.7219H53.9656V48.3875H53.4062V42.7219ZM52.375 42.7219H52.9344V48.3875H52.375V42.7219ZM51.3437 42.7219H51.9031V48.3875H51.3437V42.7219ZM50.3125 42.7219H50.8719V48.3875H50.3125V42.7219ZM49.3031 42.7219H49.8406V48.3875H49.3031V42.7219ZM48.75 42.1562H55.55V48.9563H48.75V42.1562Z" fill="#26C2EE"/>
<path d="M54.4376 34.8781H54.975V40.5437H54.4376V34.8781ZM53.4063 34.8781H53.9657V40.5437H53.4063V34.8781ZM52.3751 34.8781H52.9344V40.5437H52.3751V34.8781ZM51.3438 34.8781H51.9032V40.5437H51.3438V34.8781ZM50.3126 34.8781H50.8719V40.5437H50.3126V34.8781ZM49.3032 34.8781H49.8407V40.5437H49.3032V34.8781ZM48.7375 34.3124H55.5375V41.1125H48.7501V34.3093L48.7375 34.3124Z" fill="#00ACD3"/>
<path d="M54.4375 27.0312H54.975V32.6968H54.4375V27.0312ZM53.4062 27.0312H53.9656V32.6968H53.4062V27.0312ZM52.375 27.0312H52.9344V32.6968H52.375V27.0312ZM51.3437 27.0312H51.9031V32.6968H51.3437V27.0312ZM50.3125 27.0312H50.8719V32.6968H50.3125V27.0312ZM49.3031 27.0312H49.8406V32.6968H49.3031V27.0312ZM48.75 26.4656H55.55V33.2656H48.75V26.4656Z" fill="#26C2EE"/>
<path d="M62.2813 42.7219H62.8125V48.3875H62.2813V42.7219ZM61.25 42.7219H61.8063V48.3875H61.25V42.7219ZM60.2188 42.7219H60.7782V48.3875H60.2188V42.7219ZM59.1875 42.7219H59.7469V48.3875H59.1875V42.7219ZM58.1563 42.7219H58.7157V48.3875H58.1563V42.7219ZM57.1469 42.7219H57.6844V48.3875H57.1469V42.7219ZM56.5813 42.1562H63.3813V48.9563H56.5844V42.1562H56.5813Z" fill="#00ACD3"/>
<path d="M39.4251 59.978C39.7959 59.978 40.1584 60.088 40.4667 60.294C40.7751 60.5 41.0154 60.7929 41.1573 61.1355C41.2992 61.4781 41.3364 61.8551 41.264 62.2188C41.1917 62.5825 41.0131 62.9166 40.7509 63.1789C40.4887 63.4411 40.1546 63.6197 39.7908 63.692C39.4271 63.7643 39.0501 63.7272 38.7075 63.5853C38.3649 63.4434 38.0721 63.2031 37.866 62.8947C37.66 62.5864 37.55 62.2239 37.55 61.853C37.55 61.3557 37.7476 60.8788 38.0992 60.5272C38.4509 60.1756 38.9278 59.978 39.4251 59.978Z" fill="#D5EEF2"/>
<path d="M39.425 60.5093C39.5917 60.5091 39.757 60.5398 39.9125 60.5999C39.8396 60.6422 39.7774 60.7008 39.7309 60.771C39.6844 60.8413 39.6547 60.9213 39.6443 61.005C39.6338 61.0886 39.6428 61.1735 39.6706 61.253C39.6983 61.3326 39.7441 61.4047 39.8043 61.4637C39.8645 61.5226 39.9375 61.5669 40.0176 61.5929C40.0978 61.619 40.1829 61.6262 40.2662 61.614C40.3496 61.6018 40.429 61.5705 40.4983 61.5225C40.5676 61.4745 40.6248 61.4112 40.6656 61.3374C40.7761 61.6033 40.7982 61.8977 40.7288 62.1771C40.6593 62.4566 40.5019 62.7063 40.2798 62.8896C40.0576 63.0728 39.7825 63.1799 39.4949 63.1949C39.2074 63.21 38.9226 63.1322 38.6825 62.9732C38.4425 62.8142 38.2599 62.5822 38.1616 62.3116C38.0633 62.0409 38.0546 61.7458 38.1367 61.4698C38.2188 61.1938 38.3874 60.9515 38.6177 60.7786C38.8479 60.6056 39.1276 60.5112 39.4156 60.5093" fill="#3A4E55"/>
<path d="M6.24995 56.0906H93.4999C91.6 55.6094 87.4906 54.9594 88.1656 52.4688C84.7124 56.4656 76.3812 55.2812 74.2781 53.3031C71.9374 56.7 58.3062 55.4094 57.3562 52.7625C54.4218 56.2 45.325 56.2 42.3906 52.7625C41.4531 55.4094 27.8093 56.7 25.4687 53.3031C23.3656 55.275 15.0375 56.4656 11.5812 52.4688C12.2593 54.9688 8.1437 55.6094 6.24683 56.0906" fill="#3A4E55"/>
<path d="M44.4094 73.4938C40.572 71.8584 37.4953 68.8319 35.7969 65.022C33.7675 65.5603 31.6853 65.8746 29.5875 65.9595C28.6792 66.0095 27.724 66.0355 26.7219 66.0376C25.5677 66.0376 24.3511 66.0032 23.0719 65.9345C25.54 68.5046 28.5326 70.513 31.8462 71.8234C35.1598 73.1337 38.7167 73.7152 42.275 73.5282C42.9917 73.5282 43.7032 73.5147 44.4094 73.4876" fill="#C0DBE1"/>
<path d="M37.5219 68.0407C36.8407 67.099 36.2624 66.087 35.7969 65.022C33.7675 65.5603 31.6853 65.8746 29.5875 65.9595C32.0582 67.1983 34.7611 67.9051 37.5219 68.0345" fill="#D5EEF2"/>
</svg>
